# xmcd
#
# Track frame offsets: 
#        150
#        12902
#        27547
#        41360
#        53940
#        67340
#        80490
#        95165
#        108617
#        121075
#        133887
#        147225
#        159390
#        173260
#        188320
#        202070
#        217475
#        229520
#        244437
#        258655
#        273332
#        288495
#        303357
#        317462
#
# Disc length: 4424 seconds
#
# Revision: 2
# Processed by: cddbd v1.5.2PL0 Copyright (c) Steve Scherf et al.
# Submitted via: ExactAudioCopyFreeDBPlugin 1.0
#
DISCID=67114618
DTITLE=The Ink Spots - The Anthology
DYEAR=1998
DGENRE=Rhythm and Blues
TTITLE0=Your Feet's Too Big
TTITLE1=I Wish You the Best of Everything
TTITLE2=If I Didn't Care
TTITLE3=Just for a Thrill
TTITLE4=It's Funny to Everyone But Me
TTITLE5=Address Unknown
TTITLE6=My Prayer
TTITLE7=Memories of You
TTITLE8=I'm Gettin' Sentimental Over You
TTITLE9=Bless You
TTITLE10=When the Swallows Come Back to Capistrano
TTITLE11=Whispering Grass (Don't Tell the Trees)
TTITLE12=Maybe
TTITLE13=We Three
TTITLE14=Java Jive
TTITLE15=I'll Never Smile Again
TTITLE16=Do I Worry?
TTITLE17=My Greatest Mistake
TTITLE18=Ring, Telephone, Ring
TTITLE19=I Can't Stand Losing You
TTITLE20=That's When Your Heartaches Begin
TTITLE21=I Wish I Could Say the Same
TTITLE22=I'd Climb the Highest Mountain
TTITLE23=We'll Meet Again
EXTD=
EXTT0=
EXTT1=
EXTT2=
EXTT3=
EXTT4=
EXTT5=
EXTT6=
EXTT7=
EXTT8=
EXTT9=
EXTT10=
EXTT11=
EXTT12=
EXTT13=
EXTT14=
EXTT15=
EXTT16=
EXTT17=
EXTT18=
EXTT19=
EXTT20=
EXTT21=
EXTT22=
EXTT23=
PLAYORDER=
